<svg width="365" height="454" viewBox="0 0 365 454" fill="none" xmlns="http://www.w3.org/2000/svg">
<path d="M177.65 363.03C268.053 363.03 341.34 287.344 341.34 193.98C341.34 100.616 268.053 24.9299 177.65 24.9299C87.2465 24.9299 13.96 100.616 13.96 193.98C13.96 287.344 87.2465 363.03 177.65 363.03Z" fill="#22559B" stroke="#231815" stroke-miterlimit="10"/>
<path d="M177.65 332.08C253.921 332.08 315.75 270.25 315.75 193.98C315.75 117.709 253.921 55.8799 177.65 55.8799C101.38 55.8799 39.55 117.709 39.55 193.98C39.55 270.25 101.38 332.08 177.65 332.08Z" fill="white" stroke="#231815" stroke-miterlimit="10"/>
<path d="M323.48 4L278.25 42.09L215.15 88.52L148.48 131.38L81.82 181.38L137.77 206.38L104.44 247.56L13.96 369.47L102.06 304L213.96 220.66L286.58 168.28L212.77 146.85L323.48 4Z" fill="#5A82C2" stroke="#231815" stroke-miterlimit="10"/>
<path d="M260.19 63.02L109 173.74L155.43 195.17L60.1902 324.93L260.19 172.55L186.38 153.5L260.19 63.02Z" fill="#E7E737" stroke="#231815" stroke-miterlimit="10"/>
<path d="M2.89773 399.891V395.203H35.625V399.891H21.9034V438.84H16.6193V399.891H2.89773ZM48.1268 419.152V438.84H43.0984V395.203H48.1268V411.226H48.5529C49.32 409.536 50.4705 408.194 52.0046 407.199C53.5529 406.191 55.6126 405.686 58.1836 405.686C60.4137 405.686 62.3668 406.134 64.043 407.029C65.7191 407.909 67.0188 409.266 67.9421 411.098C68.8796 412.917 69.3484 415.232 69.3484 418.044V438.84H64.32V418.385C64.32 415.786 63.6452 413.776 62.2958 412.355C60.9606 410.921 59.1069 410.203 56.7347 410.203C55.087 410.203 53.6097 410.551 52.3029 411.248C51.0103 411.944 49.9876 412.959 49.2347 414.294C48.4961 415.63 48.1268 417.249 48.1268 419.152ZM92.2692 439.522C89.1158 439.522 86.3956 438.826 84.1087 437.434C81.8359 436.027 80.0817 434.067 78.8459 431.553C77.6243 429.025 77.0135 426.084 77.0135 422.732C77.0135 419.38 77.6243 416.425 78.8459 413.868C80.0817 411.297 81.8004 409.294 84.0021 407.86C86.218 406.411 88.8033 405.686 91.7578 405.686C93.4624 405.686 95.1456 405.971 96.8075 406.539C98.4695 407.107 99.9822 408.03 101.346 409.309C102.71 410.573 103.796 412.249 104.606 414.337C105.415 416.425 105.82 418.996 105.82 422.05V424.181H80.593V419.834H100.707C100.707 417.988 100.337 416.34 99.5987 414.891C98.8743 413.442 97.8374 412.299 96.4879 411.461C95.1527 410.623 93.576 410.203 91.7578 410.203C89.755 410.203 88.022 410.701 86.5589 411.695C85.1101 412.675 83.995 413.953 83.2138 415.53C82.4325 417.107 82.0419 418.797 82.0419 420.601V423.499C82.0419 425.971 82.468 428.066 83.3203 429.784C84.1868 431.489 85.3871 432.789 86.9212 433.684C88.4553 434.564 90.2379 435.005 92.2692 435.005C93.5902 435.005 94.7834 434.82 95.8487 434.451C96.9283 434.067 97.8587 433.499 98.6399 432.746C99.4212 431.979 100.025 431.027 100.451 429.891L105.309 431.255C104.798 432.902 103.938 434.351 102.731 435.601C101.523 436.837 100.032 437.803 98.2564 438.499C96.4808 439.181 94.4851 439.522 92.2692 439.522ZM128.64 399.891V395.203H161.367V399.891H147.646V438.84H142.362V399.891H128.64ZM173.869 419.152V438.84H168.841V395.203H173.869V411.226H174.295C175.062 409.536 176.213 408.194 177.747 407.199C179.295 406.191 181.355 405.686 183.926 405.686C186.156 405.686 188.109 406.134 189.785 407.029C191.461 407.909 192.761 409.266 193.684 411.098C194.622 412.917 195.091 415.232 195.091 418.044V438.84H190.062V418.385C190.062 415.786 189.387 413.776 188.038 412.355C186.703 410.921 184.849 410.203 182.477 410.203C180.829 410.203 179.352 410.551 178.045 411.248C176.752 411.944 175.73 412.959 174.977 414.294C174.238 415.63 173.869 417.249 173.869 419.152ZM224.915 425.459V406.113H229.943V438.84H224.915V433.3H224.574C223.807 434.962 222.614 436.375 220.994 437.54C219.375 438.691 217.33 439.266 214.858 439.266C212.812 439.266 210.994 438.819 209.403 437.924C207.813 437.015 206.563 435.651 205.653 433.833C204.744 432 204.29 429.692 204.29 426.908V406.113H209.318V426.567C209.318 428.953 209.986 430.857 211.321 432.277C212.67 433.698 214.389 434.408 216.477 434.408C217.727 434.408 218.999 434.088 220.291 433.449C221.598 432.81 222.692 431.83 223.572 430.509C224.467 429.188 224.915 427.505 224.915 425.459ZM244.181 419.152V438.84H239.153V406.113H244.011V411.226H244.437C245.204 409.564 246.369 408.229 247.931 407.221C249.494 406.198 251.511 405.686 253.983 405.686C256.199 405.686 258.137 406.141 259.799 407.05C261.461 407.945 262.754 409.309 263.677 411.141C264.6 412.959 265.062 415.26 265.062 418.044V438.84H260.034V418.385C260.034 415.814 259.366 413.811 258.031 412.377C256.696 410.928 254.863 410.203 252.534 410.203C250.929 410.203 249.494 410.551 248.23 411.248C246.98 411.944 245.993 412.959 245.268 414.294C244.544 415.63 244.181 417.249 244.181 419.152ZM286.609 439.522C283.881 439.522 281.474 438.833 279.386 437.455C277.298 436.063 275.664 434.103 274.485 431.574C273.306 429.032 272.717 426.027 272.717 422.561C272.717 419.124 273.306 416.141 274.485 413.613C275.664 411.084 277.305 409.131 279.407 407.753C281.509 406.375 283.938 405.686 286.694 405.686C288.825 405.686 290.508 406.042 291.744 406.752C292.994 407.448 293.945 408.243 294.599 409.138C295.266 410.019 295.785 410.743 296.154 411.311H296.58V395.203H301.609V438.84H296.751V433.811H296.154C295.785 434.408 295.259 435.161 294.577 436.07C293.896 436.965 292.923 437.767 291.658 438.478C290.394 439.174 288.711 439.522 286.609 439.522ZM287.29 435.005C289.308 435.005 291.012 434.479 292.404 433.428C293.796 432.363 294.854 430.892 295.579 429.017C296.303 427.128 296.665 424.948 296.665 422.476C296.665 420.033 296.31 417.895 295.6 416.063C294.89 414.216 293.839 412.782 292.447 411.759C291.055 410.722 289.336 410.203 287.29 410.203C285.16 410.203 283.384 410.75 281.964 411.844C280.558 412.924 279.499 414.394 278.789 416.255C278.093 418.101 277.745 420.175 277.745 422.476C277.745 424.806 278.1 426.922 278.81 428.826C279.535 430.715 280.6 432.221 282.006 433.343C283.427 434.451 285.188 435.005 287.29 435.005ZM325.238 439.522C322.085 439.522 319.364 438.826 317.077 437.434C314.805 436.027 313.05 434.067 311.815 431.553C310.593 429.025 309.982 426.084 309.982 422.732C309.982 419.38 310.593 416.425 311.815 413.868C313.05 411.297 314.769 409.294 316.971 407.86C319.187 406.411 321.772 405.686 324.727 405.686C326.431 405.686 328.114 405.971 329.776 406.539C331.438 407.107 332.951 408.03 334.315 409.309C335.678 410.573 336.765 412.249 337.575 414.337C338.384 416.425 338.789 418.996 338.789 422.05V424.181H313.562V419.834H333.675C333.675 417.988 333.306 416.34 332.567 414.891C331.843 413.442 330.806 412.299 329.457 411.461C328.121 410.623 326.545 410.203 324.727 410.203C322.724 410.203 320.991 410.701 319.528 411.695C318.079 412.675 316.964 413.953 316.183 415.53C315.401 417.107 315.011 418.797 315.011 420.601V423.499C315.011 425.971 315.437 428.066 316.289 429.784C317.156 431.489 318.356 432.789 319.89 433.684C321.424 434.564 323.207 435.005 325.238 435.005C326.559 435.005 327.752 434.82 328.817 434.451C329.897 434.067 330.827 433.499 331.609 432.746C332.39 431.979 332.994 431.027 333.42 429.891L338.278 431.255C337.766 432.902 336.907 434.351 335.7 435.601C334.492 436.837 333.001 437.803 331.225 438.499C329.45 439.181 327.454 439.522 325.238 439.522ZM346.438 438.84V406.113H351.296V411.056H351.637C352.234 409.436 353.313 408.123 354.876 407.114C356.438 406.105 358.2 405.601 360.16 405.601C360.529 405.601 360.991 405.608 361.545 405.623C362.099 405.637 362.518 405.658 362.802 405.686V410.8C362.631 410.757 362.241 410.694 361.63 410.608C361.033 410.509 360.401 410.459 359.734 410.459C358.143 410.459 356.722 410.793 355.472 411.461C354.237 412.114 353.256 413.023 352.532 414.188C351.822 415.338 351.467 416.652 351.467 418.13V438.84H346.438Z" fill="#231815"/>
</svg>
