<svg id="圖層_1" data-name="圖層 1" xmlns="http://www.w3.org/2000/svg" viewBox="0 0 316.36 272"><defs><style>.cls-1{fill:#24569a;}.cls-2{fill:#24559a;}.cls-3{fill:#e6e538;}.cls-4{fill:#25569b;}.cls-5{fill:#201613;}</style></defs><path class="cls-1" d="M581.14,386h13.8c2.18.41,4.36.89,6.56,1.21a106.75,106.75,0,0,1,21.1,5.19c-2.7,5.29-5.4,10.47-8,15.71-.68,1.37-1.6.82-2.5.62-3.59-.79-7.14-1.83-10.76-2.4-21.73-3.46-42.19-.06-61.27,11.22a89.88,89.88,0,0,0-37.86,43.31,87.08,87.08,0,0,0-6.82,30.44c0,1,.08,2,.13,3a84.62,84.62,0,0,0,4.05,28.58A87.32,87.32,0,0,0,524,561.68c3,4,7.12,6.7,11.15,9.39a91.68,91.68,0,0,0,92.6,5.56c20.72-10.83,35.25-27.28,43.59-49.17a10.52,10.52,0,0,1,2.12-3.52c6.92-7.07,13.93-14.07,20.91-21.08.27-.28.57-.52,1.42-1.26-.54,4.57-.83,8.56-1.51,12.49a107.09,107.09,0,0,1-22.13,49.73c-16.43,20.48-37.45,33.95-63.23,39.27-31.55,6.52-60.72.38-86.92-18.35-21.39-15.3-35.62-36-42-61.47-8.58-34.43-2.13-66.23,19.41-94.45,17.16-22.49,40.12-36.05,68-41.06,2.74-.5,5.53-.77,8.29-1.19" transform="translate(-433.5 -386)"/><path class="cls-2" d="M623.19,406.56a28.58,28.58,0,0,1-.3,3.21c-1.67,8.3-3.39,16.6-5.08,24.9a11.6,11.6,0,0,1-.19,1.18c-.54,1.8.26,2.27,2,2.24,5.2-.08,10.4,0,15.59-.09,12.69-.09,25.38-.25,38.07-.29q36.43-.12,72.85-.15h3.78c-1.06,1.15-1.75,1.95-2.49,2.7q-21.68,22-43.35,44-34.2,34.71-68.33,69.48A6.9,6.9,0,0,1,630.2,556c-12.19-.1-24.38,0-36.57,0h-3.69l58.28-80H586.59c12-23.48,23.87-46.57,35.7-69.67Z" transform="translate(-433.5 -386)"/><path class="cls-3" d="M524,561.68a87.32,87.32,0,0,1-24.4-38.82,84.62,84.62,0,0,1-4.05-28.58c1.69-1.54,3.48-3,5-4.63,3.9-4.14,7.66-8.41,11.56-12.55,8.14-8.65,16.34-17.25,24.5-25.88,2-2.1,3.86-4.31,5.91-6.35a4.06,4.06,0,0,1,2.51-1.29c13.48-.08,27-.06,40.91-.06l-63,84.22h65.89c3.59,0,3.61,0,2.23,3.37-4.14,10-8.31,20-12.43,30.08-1.24,3-2.33,6.14-3.56,9.18-.17.42-.78.66-1.18,1a4.15,4.15,0,0,1-.4-1.5c.27-1.87.75-3.7,1-5.56.38-3,.32-3-2.66-3H535.57c-3.3,0-6.6,0-9.89,0A8.06,8.06,0,0,0,524,561.68Z" transform="translate(-433.5 -386)"/><path class="cls-3" d="M472.75,519.21a117.33,117.33,0,0,0,17.78,41.86h-57Z" transform="translate(-433.5 -386)"/><path class="cls-4" d="M674.84,431.45a19,19,0,0,1-2,.26c-6.69.08-13.39.2-20.08.16a5,5,0,0,1-3.15-1.2,95.85,95.85,0,0,0-20-14.62c-1.38-.76-1.7-1.41-1.33-3,1.27-5.52,2.28-11.11,3.44-17A110.76,110.76,0,0,1,674.84,431.45Z" transform="translate(-433.5 -386)"/><path class="cls-5" d="M591.83,626.62l-.3-.29c.07,0,.15,0,.19,0a1,1,0,0,1,.1.24Z" transform="translate(-433.5 -386)"/><path class="cls-5" d="M591.53,626.62l.3.3c-.07,0-.15,0-.19,0a1.09,1.09,0,0,1-.1-.25Z" transform="translate(-433.5 -386)"/><path d="M617.45,657.94V632.67c7.58,0,15-.18,22.37.07,4.34.14,6.59,1.61,6.69,4.07.24,5.71.22,11.43,0,17.15-.1,2.3-2.36,3.8-6.3,3.92C632.71,658.11,625.19,657.94,617.45,657.94Zm6.67-5.26c4.82,0,9.33,0,13.84,0,.65,0,1.82-.63,1.83-1,.12-5.56.1-7.11,0-12.67,0-.34-.82-1-1.28-1-4.76-.07-9.52,0-14.41,0Z" transform="translate(-433.5 -386)"/><path d="M687.26,632.69c7.17,0,14.11-.21,21,.07,4.54.18,5.71,2,5.93,4.65.11,1.35,0,2.71.08,4.07.18,2.67.21,5-4.08,5.92l6.49,10.6h-8.41c-1.66-2.85-3.41-5.71-5-8.6-.58-1.06-1.44-1.48-3.36-1.4-2.65.1-3.32,0-6.23,0v10h-6.46Zm7.42,11.8c4.61,0,6.11,0,10.51,0,.52,0,1.43-.54,1.44-.85a67.25,67.25,0,0,0,0-6.81c0-.28-.82-.78-1.27-.78-4.48-.06-6.06,0-10.68,0Z" transform="translate(-433.5 -386)"/><path d="M504,633h6.61v9h18.2v-8.94h6.83v24.57h-6.62V646.86h-18.2v10.75H504Z" transform="translate(-433.5 -386)"/><path d="M578.68,633.18c3-.58,4.56-.56,6,.82,5.16,4.93,10.5,8.55,15.8,13.43.42.38.89.74,1.8,1.5V633.12h5.4v24.71c-2.5.39-4.29.19-5.89-1.34-5.07-4.83-10.45-9.56-15.71-14.32a5.88,5.88,0,0,0-2.14-1.34v17h-5.26Z" transform="translate(-433.5 -386)"/><path d="M543.57,633h5.86v20h15V633.06h6a12.76,12.76,0,0,1,.16,1.43c0,6,0,12,0,18,0,4-2.4,5.57-8.76,5.56-4.46,0-8.95,0-13.38-.33-2.89-.18-4.84-1.48-4.88-3.3C543.48,647.29,543.57,640.21,543.57,633Z" transform="translate(-433.5 -386)"/><path d="M655.23,632.36h25V637H662.16v5h11.52v4.59H662.2V653h18.48v5H655.23Z" transform="translate(-433.5 -386)"/><path d="M499.68,626v6.36H487.22V658h-7.54V632.49h-13V626Z" transform="translate(-433.5 -386)"/></svg>