<svg id="layer_1" data-name="layer 1" xmlns="http://www.w3.org/2000/svg" viewBox="0 0 316.36 219.61"><defs><style>.cls-1{fill:#fa0;}.cls-2{fill:#fa0;}.cls-3{fill:#fa0;}.cls-4{fill:#fa0;}</style></defs><path class="cls-1" d="M581.14,386h13.8c2.18.41,4.36.89,6.56,1.21a106.75,106.75,0,0,1,21.1,5.19c-2.7,5.29-5.4,10.47-8,15.71-.68,1.37-1.6.82-2.5.62-3.59-.79-7.14-1.83-10.76-2.4-21.73-3.46-42.19-.06-61.27,11.22a89.88,89.88,0,0,0-37.86,43.31,87.08,87.08,0,0,0-6.82,30.44c0,1,.08,2,.13,3a84.62,84.62,0,0,0,4.05,28.58A87.32,87.32,0,0,0,524,561.68c3,4,7.12,6.7,11.15,9.39a91.68,91.68,0,0,0,92.6,5.56c20.72-10.83,35.25-27.28,43.59-49.17a10.52,10.52,0,0,1,2.12-3.52c6.92-7.07,13.93-14.07,20.91-21.08.27-.28.57-.52,1.42-1.26-.54,4.57-.83,8.56-1.51,12.49a107.09,107.09,0,0,1-22.13,49.73c-16.43,20.48-37.45,33.95-63.23,39.27-31.55,6.52-60.72.38-86.92-18.35-21.39-15.3-35.62-36-42-61.47-8.58-34.43-2.13-66.23,19.41-94.45,17.16-22.49,40.12-36.05,68-41.06,2.74-.5,5.53-.77,8.29-1.19" transform="translate(-433.5 -386)"/><path class="cls-2" d="M623.19,406.56a28.58,28.58,0,0,1-.3,3.21c-1.67,8.3-3.39,16.6-5.08,24.9a11.6,11.6,0,0,1-.19,1.18c-.54,1.8.26,2.27,2,2.24,5.2-.08,10.4,0,15.59-.09,12.69-.09,25.38-.25,38.07-.29q36.43-.12,72.85-.15h3.78c-1.06,1.15-1.75,1.95-2.49,2.7q-21.68,22-43.35,44-34.2,34.71-68.33,69.48A6.9,6.9,0,0,1,630.2,556c-12.19-.1-24.38,0-36.57,0h-3.69l58.28-80H586.59c12-23.48,23.87-46.57,35.7-69.67Z" transform="translate(-433.5 -386)"/><path class="cls-3" d="M524,561.68a87.32,87.32,0,0,1-24.4-38.82,84.62,84.62,0,0,1-4.05-28.58c1.69-1.54,3.48-3,5-4.63,3.9-4.14,7.66-8.41,11.56-12.55,8.14-8.65,16.34-17.25,24.5-25.88,2-2.1,3.86-4.31,5.91-6.35a4.06,4.06,0,0,1,2.51-1.29c13.48-.08,27-.06,40.91-.06l-63,84.22h65.89c3.59,0,3.61,0,2.23,3.37-4.14,10-8.31,20-12.43,30.08-1.24,3-2.33,6.14-3.56,9.18-.17.42-.78.66-1.18,1a4.15,4.15,0,0,1-.4-1.5c.27-1.87.75-3.7,1-5.56.38-3,.32-3-2.66-3H535.57c-3.3,0-6.6,0-9.89,0A8.06,8.06,0,0,0,524,561.68Z" transform="translate(-433.5 -386)"/><path class="cls-3" d="M472.75,519.21a117.33,117.33,0,0,0,17.78,41.86h-57Z" transform="translate(-433.5 -386)"/><path class="cls-4" d="M674.84,431.45a19,19,0,0,1-2,.26c-6.69.08-13.39.2-20.08.16a5,5,0,0,1-3.15-1.2,95.85,95.85,0,0,0-20-14.62c-1.38-.76-1.7-1.41-1.33-3,1.27-5.52,2.28-11.11,3.44-17A110.76,110.76,0,0,1,674.84,431.45Z" transform="translate(-433.5 -386)"/></svg>